<?xml version="1.0" encoding="UTF-8" standalone="no"?>
<svg
   xmlns:dc="http://purl.org/dc/elements/1.1/"
   xmlns:cc="http://creativecommons.org/ns#"
   xmlns:rdf="http://www.w3.org/1999/02/22-rdf-syntax-ns#"
   xmlns:svg="http://www.w3.org/2000/svg"
   xmlns="http://www.w3.org/2000/svg"
   xmlns:sodipodi="http://sodipodi.sourceforge.net/DTD/sodipodi-0.dtd"
   xmlns:inkscape="http://www.inkscape.org/namespaces/inkscape"
   enable-background="new 0 0 512 512"
   height="512px"
   id="Layer_1"
   version="1.1"
   viewBox="0 0 512 512"
   width="512px"
   x="0px"
   xml:space="preserve"
   y="0px"
   inkscape:version="0.48.4 r9939"
   sodipodi:docname="globe-icon2.svg"><metadata
     id="metadata4448"><rdf:RDF><cc:Work
         rdf:about=""><dc:format>image/svg+xml</dc:format><dc:type
           rdf:resource="http://purl.org/dc/dcmitype/StillImage" /></cc:Work></rdf:RDF></metadata><defs
     id="defs4446" /><sodipodi:namedview
     pagecolor="#ffffff"
     bordercolor="#666666"
     borderopacity="1"
     objecttolerance="10"
     gridtolerance="10"
     guidetolerance="10"
     inkscape:pageopacity="0"
     inkscape:pageshadow="2"
     inkscape:window-width="1855"
     inkscape:window-height="1056"
     id="namedview4444"
     showgrid="false"
     inkscape:zoom="0.4609375"
     inkscape:cx="-125.83051"
     inkscape:cy="256"
     inkscape:window-x="65"
     inkscape:window-y="24"
     inkscape:window-maximized="1"
     inkscape:current-layer="Layer_1" /><path
     d="M256,512C114.625,512,0,397.375,0,256S114.625,0,256,0s256,114.625,256,256S397.375,512,256,512z M256,64  C149.969,64,64,149.969,64,256s85.969,192,192,192c106.03,0,192-85.969,192-192S362.031,64,256,64z M350.094,371.406l-5.625,3.281  l-16.25,9.905l-9.594,6.97c-7.125,3.405-14.562,6.094-22.25,8.375V390.5l-2.72-21.719c0,0-1.344-12.531-3.375-15.812  c-2.03-3.312-6.78-7.938-11.53-9.906c-4.75-1.968-8.125-1.969-10.845-5.25c-2.719-3.312-4.75-9.25-8.125-14.5  c-3.405-5.28-7.469-10.562-7.469-13.188s0-29.656,0-29.656l3.406-25.031l7.438-5.281l8.812-9.875l6.094-1.969l21,3.938h14.906  l6.125,12.531l14.219,11.188l8.812,13.845l11.5,3.938H367.5l8.812,10.562l5.438,11.188l2.03,7.906v13.188l-1.405,7.781  C373.781,348.469,362.875,360.875,350.094,371.406z M297.719,144.062l-14.906,7.906l-5.406,15.156l-8.812,7.906h-29.156  l-13.531,5.281l-0.688,10.531l-5.406,8.562l-1.375,9.25l2.719,7.906l3.375,7.906c0,0,8.156,9.219,0,15.812  c0,0-10.155,0-12.188-3.312c-2.031-3.281-16.938-12.5-19.656-15.156c-2.688-2.625-11.5-5.25-11.5-5.25l-10.844-3.969l-10.156-0.656  l0.656-13.844l-0.656-11.844l-4.094-8.562l-11.5-8.594l-0.688-9.219l1.406-5.125c27.438-26.531,65.25-42.969,107-42.969  c23.562,0,45.594,5.656,65.5,14.969l-0.438,3.469L297.719,144.062z"
     id="path4442"
     style="fill:#333332;fill-opacity:1" /></svg>