<?xml version="1.0" encoding="UTF-8" standalone="no"?>
<svg
   xmlns:dc="http://purl.org/dc/elements/1.1/"
   xmlns:cc="http://creativecommons.org/ns#"
   xmlns:rdf="http://www.w3.org/1999/02/22-rdf-syntax-ns#"
   xmlns:svg="http://www.w3.org/2000/svg"
   xmlns="http://www.w3.org/2000/svg"
   xmlns:sodipodi="http://sodipodi.sourceforge.net/DTD/sodipodi-0.dtd"
   xmlns:inkscape="http://www.inkscape.org/namespaces/inkscape"
   enable-background="new 0 0 512 512"
   height="512px"
   id="Layer_1"
   version="1.1"
   viewBox="0 0 512 512"
   width="512px"
   x="0px"
   xml:space="preserve"
   y="0px"
   inkscape:version="0.48.4 r9939"
   sodipodi:docname="pin-icon.svg"><metadata
     id="metadata3052"><rdf:RDF><cc:Work
         rdf:about=""><dc:format>image/svg+xml</dc:format><dc:type
           rdf:resource="http://purl.org/dc/dcmitype/StillImage" /></cc:Work></rdf:RDF></metadata><defs
     id="defs3050" /><sodipodi:namedview
     pagecolor="#ffffff"
     bordercolor="#666666"
     borderopacity="1"
     objecttolerance="10"
     gridtolerance="10"
     guidetolerance="10"
     inkscape:pageopacity="0"
     inkscape:pageshadow="2"
     inkscape:window-width="1855"
     inkscape:window-height="1056"
     id="namedview3048"
     showgrid="false"
     inkscape:zoom="0.4609375"
     inkscape:cx="-125.83051"
     inkscape:cy="256"
     inkscape:window-x="65"
     inkscape:window-y="24"
     inkscape:window-maximized="1"
     inkscape:current-layer="g3042" /><g
     id="g3042"
     style="fill:#565248"><g
       id="g3044"
       style="fill:#333332;fill-opacity:1"><path
         d="M256,0C149.969,0,64,85.969,64,192s192,320,192,320s192-213.969,192-320S362.031,0,256,0z M256,320    c-70.688,0-128-57.312-128-128c0-70.688,57.312-128,128-128c70.688,0,128,57.312,128,128C384,262.688,326.688,320,256,320z     M256,128c-35.345,0-64,28.656-64,64s28.655,64,64,64c35.344,0,64-28.656,64-64S291.344,128,256,128z"
         id="path3046"
         style="fill:#333332;fill-opacity:1" /></g></g></svg>