<?xml version="1.0" encoding="UTF-8" standalone="no"?>
<svg
   xmlns:dc="http://purl.org/dc/elements/1.1/"
   xmlns:cc="http://creativecommons.org/ns#"
   xmlns:rdf="http://www.w3.org/1999/02/22-rdf-syntax-ns#"
   xmlns:svg="http://www.w3.org/2000/svg"
   xmlns="http://www.w3.org/2000/svg"
   xmlns:sodipodi="http://sodipodi.sourceforge.net/DTD/sodipodi-0.dtd"
   xmlns:inkscape="http://www.inkscape.org/namespaces/inkscape"
   enable-background="new 0 0 512 512"
   height="512px"
   id="Layer_1"
   version="1.1"
   viewBox="0 0 512 512"
   width="512px"
   x="0px"
   xml:space="preserve"
   y="0px"
   inkscape:version="0.48.4 r9939"
   sodipodi:docname="users-icon.svg"><metadata
     id="metadata3884"><rdf:RDF><cc:Work
         rdf:about=""><dc:format>image/svg+xml</dc:format><dc:type
           rdf:resource="http://purl.org/dc/dcmitype/StillImage" /></cc:Work></rdf:RDF></metadata><defs
     id="defs3882" /><sodipodi:namedview
     pagecolor="#ffffff"
     bordercolor="#666666"
     borderopacity="1"
     objecttolerance="10"
     gridtolerance="10"
     guidetolerance="10"
     inkscape:pageopacity="0"
     inkscape:pageshadow="2"
     inkscape:window-width="1855"
     inkscape:window-height="1056"
     id="namedview3880"
     showgrid="false"
     inkscape:zoom="0.4609375"
     inkscape:cx="-125.83051"
     inkscape:cy="256"
     inkscape:window-x="65"
     inkscape:window-y="24"
     inkscape:window-maximized="1"
     inkscape:current-layer="Layer_1" /><g
     id="g3874"
     style="fill:#333332;fill-opacity:1"><path
       d="M288,305.75V224c0-53.031-42.97-96-96-96c-53.031,0-96,42.969-96,96v81.75C38.844,327.938,0,368.75,0,416   c0,5.656,0,64,0,64c0,17.688,14.312,32,32,32h320c17.688,0,32-14.312,32-32c0,0,0-58.344,0-64   C384,368.75,345.156,327.938,288,305.75z M160,224c0-17.688,14.312-32,32-32c17.688,0,32,14.312,32,32v96c0,17.688-14.312,32-32,32   c-17.688,0-32-14.312-32-32V224z M320,448H64v-32c0-19.438,17.719-36.656,45.094-48.406C125.688,396.406,156.406,416,192,416   c35.594,0,66.312-19.594,82.905-48.406C302.281,379.344,320,396.562,320,416V448z"
       id="path3876"
       style="fill:#333332;fill-opacity:1" /><path
       d="M416,177.75V96c0-53.031-42.97-96-96-96c-53.031,0-96,42.969-96,96v4.531c25.28,6.531,47.312,20.531,64,39.625V96   c0-17.688,14.312-32,32-32c17.688,0,32,14.312,32,32v96c0,17.688-14.312,32-32,32v64c35.594,0,66.312-19.594,82.905-48.406   C430.281,251.344,448,268.562,448,288v32H331.219c32.219,16.594,56.969,38.5,71.062,64H480c17.688,0,32-14.312,32-32   c0,0,0-58.344,0-64C512,240.75,473.156,199.938,416,177.75z"
       id="path3878"
       style="fill:#333332;fill-opacity:1" /></g></svg>